<?xml version="1.0" encoding="UTF-8"?>
<svg width="149px" height="134px" viewBox="0 0 149 134" version="1.1" xmlns="http://www.w3.org/2000/svg" xmlns:xlink="http://www.w3.org/1999/xlink">
    <title>编组 8</title>
    <defs>
        <linearGradient x1="50%" y1="55.3676343%" x2="49.99969%" y2="42.2583907%" id="linearGradient-1">
            <stop stop-color="#FFFFFF" stop-opacity="0" offset="0%"></stop>
            <stop stop-color="#EDEFF2" offset="100%"></stop>
        </linearGradient>
        <linearGradient x1="37.1864072%" y1="65.6805785%" x2="21.6613638%" y2="37.7897494%" id="linearGradient-2">
            <stop stop-color="#FFFFFF" stop-opacity="0" offset="0%"></stop>
            <stop stop-color="#E8EAEE" offset="100%"></stop>
        </linearGradient>
        <linearGradient x1="31.2744495%" y1="50%" x2="31.2744495%" y2="4.2671554%" id="linearGradient-3">
            <stop stop-color="#FAFAFA" offset="0%"></stop>
            <stop stop-color="#E7E9ED" offset="100%"></stop>
        </linearGradient>
        <linearGradient x1="50%" y1="50%" x2="45.9993358%" y2="27.9753424%" id="linearGradient-4">
            <stop stop-color="#FAFAFA" offset="0%"></stop>
            <stop stop-color="#E4E6EB" offset="100%"></stop>
        </linearGradient>
        <linearGradient x1="69.42092%" y1="69.4454353%" x2="45.9993358%" y2="27.6255874%" id="linearGradient-5">
            <stop stop-color="#FAFAFA" offset="0%"></stop>
            <stop stop-color="#E4E6EB" offset="100%"></stop>
        </linearGradient>
        <linearGradient x1="90.3410395%" y1="67.5783757%" x2="34.2327996%" y2="32.4216243%" id="linearGradient-6">
            <stop stop-color="#FFFFFF" stop-opacity="0" offset="0%"></stop>
            <stop stop-color="#E8EAEE" offset="100%"></stop>
        </linearGradient>
    </defs>
    <g id="组件库规范" stroke="none" stroke-width="1" fill="none" fill-rule="evenodd">
        <g id="反馈" transform="translate(-843.000000, -3491.000000)">
            <g id="编组-8" transform="translate(843.000000, 3491.000000)">
                <text id="404" font-family="PingFangSC-Regular, PingFang SC" font-size="14" font-weight="normal" fill="#C9CDD4">
                    <tspan x="65" y="129">404</tspan>
                </text>
                <g id="缺省页_暂无消息">
                    <ellipse id="椭圆形" fill="url(#linearGradient-1)" fill-rule="nonzero" cx="74.5" cy="73" rx="74.5" ry="36"></ellipse>
                    <g id="编组-2" transform="translate(45.000000, 0.000000)">
                        <polygon id="路径" fill="url(#linearGradient-2)" fill-rule="nonzero" points="83 71.2439381 39.3821151 84.8033856 31.4762375 49.7011447 31.4762375 49.7011447"></polygon>
                        <path d="M63.385926,15.2730789 L31.4310515,47.7334716 L0,15.8051886 C7.40883154,6.18471293 18.9446517,0 31.9013207,0 C44.6169977,0 55.9653796,5.95690877 63.385926,15.2730789 Z" id="路径" fill="url(#linearGradient-3)"></path>
                        <path d="M31.5448533,47.7334716 L55.8850489,23.0082201 C50.308761,15.720187 41.597903,11.0298014 31.805928,11.0298014 C21.8817421,11.0298014 13.0654501,15.8493894 7.5008771,23.3091256 L31.5448533,47.7334716 Z" id="路径" fill="url(#linearGradient-4)"></path>
                        <path d="M31.5415062,47.7334716 L47.2997076,31.7259793 C43.7618107,26.9539922 38.1369896,23.8667358 31.8025809,23.8667358 C25.3342877,23.8667358 19.6057062,27.0865946 16.0845448,32.0319849 L31.5415062,47.7334716 Z" id="路径" fill="url(#linearGradient-5)"></path>
                        <g id="编组" transform="translate(9.366892, 28.992329)" fill="#D3DAE5" fill-rule="nonzero">
                            <path d="M13.9875794,15.0809754 L11.4588366,15.0809754 L11.4588366,20.4904741 L8.5535437,20.4904741 L8.5535437,15.0809754 L0,15.0809754 L0,12.9763369 L7.88077427,0.380806953 L11.4588366,0.380806953 L11.4588366,12.6482309 L13.9875794,12.6482309 L13.9875794,15.0809754 Z M8.5535437,12.649931 L8.5535437,7.37643469 C8.5535437,6.28331473 8.66065128,4.59008381 8.71420506,3.49696385 L8.60709749,3.49696385 C8.12343986,4.50848232 7.58455489,5.54550126 7.02056659,6.58422022 L3.12118157,12.649931 L8.5535437,12.649931 Z" id="形状"></path>
                            <path d="M16.0594415,10.3548891 C16.0594415,3.38816186 18.5614074,0 22.4607924,0 C26.3334005,0 28.8621434,3.41536236 28.8621434,10.3548891 C28.8621434,17.3488168 26.3334005,20.8474807 22.4607924,20.8474807 C18.5597338,20.8457806 16.0594415,17.3488168 16.0594415,10.3548891 Z M25.9032967,10.3548891 C25.9032967,4.59008381 24.4774272,2.48544538 22.4607924,2.48544538 C20.4441577,2.48544538 19.0182881,4.59008381 19.0182881,10.3548891 C19.0182881,16.1740953 20.4441577,18.3603352 22.4607924,18.3603352 C24.4774272,18.3603352 25.9032967,16.1740953 25.9032967,10.3548891 Z" id="形状"></path>
                            <path d="M44.6504688,15.0809754 L42.121726,15.0809754 L42.121726,20.4904741 L39.2164331,20.4904741 L39.2164331,15.0809754 L30.6628894,15.0809754 L30.6628894,12.9763369 L38.5436637,0.380806953 L42.121726,0.380806953 L42.121726,12.6482309 L44.6504688,12.6482309 L44.6504688,15.0809754 Z M39.2164331,12.649931 L39.2164331,7.37643469 C39.2164331,6.28331473 39.3235407,4.59008381 39.3770945,3.49696385 L39.2699869,3.49696385 C38.7863293,4.50848232 38.2474443,5.54550126 37.683456,6.58422022 L33.784071,12.649931 L39.2164331,12.649931 Z" id="形状"></path>
                        </g>
                    </g>
                    <polygon id="路径" fill="url(#linearGradient-6)" fill-rule="nonzero" points="141.712262 74.5558567 133.506779 78.6567368 118.95741 65.9625342 122.77298 65.164673"></polygon>
                    <path d="M121.34917,39.2394483 C121.696587,39.2394483 121.979743,39.5594349 121.979743,39.9552077 L121.979743,42.1572203 C121.979743,42.5529931 121.698596,42.8729796 121.34917,42.8729796 C121.001752,42.8729796 120.718597,42.5529931 120.718597,42.1572203 L120.718597,39.9552077 C120.718597,39.5594349 120.999744,39.2394483 121.34917,39.2394483 Z" id="圆角矩形-5_14_" fill="#FDD2B0"></path>
                    <path d="M120.507736,38.028973 C121.632325,37.9489763 121.80503,38.7342064 121.774907,39.3383915 C121.835153,39.2857622 121.909456,39.235238 121.977735,39.2394483 C122.210685,39.2541845 122.188595,39.5699607 122.188595,39.5699607 C122.188595,39.5699607 122.218718,39.7004816 122.084169,39.9004731 C121.983759,40.0520457 121.702612,40.1741458 121.598186,40.2162493 L121.558022,40.3425598 C121.558022,40.3425598 121.391342,40.7151757 121.242735,40.8920104 C121.033883,41.1425261 120.927449,41.2225228 120.927449,41.2225228 C120.927449,41.2225228 120.726629,41.3846212 120.507736,41.4435661 C120.306917,41.4961955 120.088024,41.4435661 120.088024,41.4435661 C120.088024,41.4435661 119.822942,41.4098833 119.772737,41.0035846 C119.742614,40.7530688 119.730565,40.4393978 119.730565,40.127832 L119.730565,40.0499405 C119.734581,39.4583865 119.772737,38.9110411 119.772737,38.9110411 C119.772737,38.9110411 119.839007,38.0752868 120.507736,38.028973 Z" id="Combined-shape-564_14_" fill="#FFD7B8"></path>
                    <path d="M120.929457,39.018405 C120.929457,39.018405 120.242655,39.1552413 119.879171,39.018405 C119.507655,38.8794635 119.459459,38.4689544 119.459459,38.4689544 C119.459459,38.4689544 119.449418,38.161599 119.563885,37.9195039 C119.654254,37.727933 119.879171,37.5889915 119.879171,37.5889915 C119.879171,37.5889915 120.06995,37.4416293 120.298884,37.4795224 C120.48163,37.5089948 120.614171,37.7005657 120.614171,37.7005657 C120.614171,37.7005657 120.853146,37.9489763 121.033883,38.0310781 C121.220645,38.1152851 121.453596,38.0310781 121.453596,38.0310781 C121.453596,38.0310781 121.819087,37.9426608 122.084169,38.2521215 C122.485808,38.7215754 122.399455,39.3531278 122.399455,39.3531278 C122.399455,39.3531278 122.333185,39.7636368 122.188595,40.1236216 C122.07212,40.4183461 121.873309,40.5636031 121.873309,40.5636031 C121.873309,40.5636031 121.768882,40.6435998 121.662448,40.5636031 C121.543965,40.4730806 121.662448,40.3425598 121.662448,40.3425598 L121.766874,40.1215165 C121.766874,40.1215165 122.180562,40.1215165 122.186587,39.4604917 C122.188595,39.3510226 121.975726,39.3510226 121.975726,39.3510226 C121.975726,39.3510226 121.855235,39.3489174 121.764866,39.4604917 C121.714661,39.5215417 121.66044,39.7910041 121.66044,39.7910041 C121.66044,39.7910041 121.61626,39.2541845 121.449579,39.1299792 C121.254785,38.9805119 120.929457,39.018405 120.929457,39.018405 Z" id="形状-17_14_" fill="#000000" fill-rule="nonzero"></path>
                    <path d="M121.678514,64.4110205 L122.009866,65.5709717 L118.991549,66.5161951 C118.991549,66.5161951 118.863025,66.1751568 119.112041,65.7878047 C119.361057,65.4025577 120.057901,65.261511 120.057901,65.261511 C120.057901,65.261511 120.296876,65.200461 120.429417,65.0299418 C120.533843,64.899421 120.56999,64.7562692 120.56999,64.7562692 L121.678514,64.4110205 Z" id="形状-30_14_" fill="#383F65"></path>
                    <path d="M115.933069,44.3529173 C115.933069,44.3529173 115.503316,44.0202997 115.306512,43.9360928 C115.143849,43.8645168 115.250283,44.1739775 115.250283,44.1739775 C115.250283,44.1739775 115.167947,44.2118706 115.023357,44.1150326 C114.961103,44.0729291 114.792415,43.8855686 114.750243,43.8413599 C114.677948,43.7676788 114.625735,43.7571529 114.625735,43.7571529 C114.625735,43.7571529 114.206022,43.6834718 114.33053,44.3908105 C114.398809,44.7823729 115.322578,45.5128685 115.322578,45.5128685 L115.933069,44.3529173 Z" id="形状-26-拷贝_12_" fill="#FFD7B8"></path>
                    <path d="M119.772737,47.605412 L118.407165,48.8158874 C118.407165,48.8158874 118.254542,48.9274616 118.091878,48.9274616 C117.939255,48.9274616 117.776592,48.8158874 117.776592,48.8158874 L115.352701,45.59076 L115.995323,44.3255501 C115.995323,44.3255501 115.989299,44.3213397 115.979258,44.312919 L115.991307,44.3023931 L117.987452,46.7254491 L118.933312,43.6413683 L119.772737,47.605412 Z" id="路径" fill="#B0D0FF"></path>
                    <path d="M127.162893,43.9571445 C127.162893,43.9571445 127.636827,43.698208 127.843671,43.6476839 C128.016376,43.6055804 127.863753,43.8918841 127.863753,43.8918841 C127.863753,43.8918841 127.940064,43.9424083 128.096703,43.8708324 C128.164982,43.8392547 128.357769,43.6813666 128.407973,43.6434735 C128.490309,43.5824228 128.544531,43.5824228 128.544531,43.5824228 C128.544531,43.5824228 128.96826,43.5782131 128.743342,44.2560793 C128.616826,44.6329055 127.596663,45.2034079 127.596663,45.2034079 L127.162893,43.9571445 Z" id="形状-26-拷贝_5_" fill="#FFD7B8"></path>
                    <path d="M127.570556,45.4033994 L125.255108,48.485375 C125.255108,48.485375 125.092444,48.5948441 124.939822,48.5948441 C124.777158,48.5948441 124.624535,48.485375 124.624535,48.485375 L123.258963,47.2748996 L124.100396,43.3108559 L125.044248,46.3928315 L127.040393,43.9718807 L127.058467,43.9887221 L127.556499,45.4118201 C127.556499,45.4118201 127.560515,45.409715 127.570556,45.4033994 Z" id="路径" fill="#B0D0FF"></path>
                    <path d="M120.718597,42.1003806 C120.718597,42.1003806 120.73667,42.359317 120.823023,42.540362 C120.891301,42.6835139 121.033883,42.7614054 121.033883,42.7614054 C121.033883,42.7614054 121.401383,42.5172051 121.664456,42.2119548 C121.865276,41.9782804 121.979743,41.6625042 121.979743,41.6625042 L123.345315,42.4329981 C123.345315,42.4329981 123.761011,42.6350949 123.975888,42.9824487 C124.192773,43.3340128 124.186765,43.7529426 124.186765,43.7529426 L124.186765,52.2304805 L118.93532,52.2304805 L118.93532,43.6434735 C118.93532,43.6434735 119.007615,43.0919178 119.459459,42.6519363 C119.951466,42.1719565 120.718597,42.1003806 120.718597,42.1003806 Z" id="形状-24_4_" fill="#B0D0FF"></path>
                    <path d="M118.941345,52.2010081 C118.909213,54.6030123 118.879091,57.0029113 118.846959,59.4049154 C119.455442,61.2785208 120.061917,63.1542313 120.6704,65.0278367 C121.011793,64.9752073 121.353186,64.9225779 121.694579,64.8699486 C121.72671,64.1078754 121.68253,63.0237105 121.317039,61.8048144 C121.130277,61.1774724 120.895318,60.6448632 120.668392,60.2090921 C120.833064,59.2807101 120.967613,58.2260177 121.029867,57.0660665 C121.076055,56.1882087 121.076055,55.3671906 121.045932,54.6177485 C121.306998,54.6177485 121.568063,54.6177485 121.829128,54.6177485 C121.909456,58.3186454 121.989784,62.0216474 122.070112,65.7225443 C122.493841,65.7225443 122.915561,65.7225443 123.339291,65.7225443 C123.534085,63.8342027 123.700766,61.8784955 123.833306,59.8617383 C123.999987,57.3228978 124.102404,54.5545932 124.150601,52.2010081 C122.413513,52.0957494 120.676425,52.3062668 118.941345,52.2010081 Z" id="路径" fill="#383F65"></path>
                    <path d="M123.196709,64.8699486 L123.441708,66.0530567 L120.363146,66.756185 C120.363146,66.756185 120.260728,66.406726 120.535851,66.0404256 C120.812982,65.6762304 121.517858,65.5899183 121.517858,65.5899183 C121.517858,65.5899183 121.76085,65.5478148 121.90544,65.3878215 C122.017899,65.2657214 122.066095,65.1267799 122.066095,65.1267799 L123.196709,64.8699486 Z" id="形状-30-拷贝_14_" fill="#383F65"></path>
                </g>
            </g>
        </g>
    </g>
</svg>