<?xml version="1.0" encoding="UTF-8"?>
<svg width="94px" height="28px" viewBox="0 0 94 28" version="1.1" xmlns="http://www.w3.org/2000/svg" xmlns:xlink="http://www.w3.org/1999/xlink">
    <title>logo</title>
    <defs>
        <polygon id="path-1" points="0 0 7.56156765 0 7.56156765 11.421453 0 11.421453"></polygon>
        <polygon id="path-3" points="0 27.7052632 94 27.7052632 94 0 0 0"></polygon>
    </defs>
    <g id="新布局" stroke="none" stroke-width="1" fill="none" fill-rule="evenodd">
        <g id="平台运营备份" transform="translate(-22.000000, -10.000000)">
            <g id="logo" transform="translate(22.000000, 10.000000)">
                <path d="M73.420114,7.98234535 L73.6838785,7.31882106 L76.1069596,7.31882106 C76.2612589,7.31882106 76.3855717,7.4432137 76.3855717,7.59696068 L76.3855717,8.19218527 L76.2845493,8.24479056 C74.5272842,9.15186866 72.7575005,9.78778242 71.0226524,10.1359656 L71.0226524,11.9550626 C73.0509603,11.4452853 74.6745964,10.8756367 76.1159846,10.1696794 L76.3855717,10.0374396 L76.3855717,11.565609 L76.2845493,11.6182143 C74.5732829,12.5020414 72.8034991,13.1373739 71.0226524,13.5082267 L71.0226524,15.315117 C73.0366949,14.8242311 74.6600398,14.2540013 76.1148201,13.5282807 L76.3855717,13.3931345 L76.3855717,15.0410463 C76.3855717,15.2645462 76.2041972,15.445613 75.9806088,15.445613 L74.6885706,15.445613 L74.6885706,16.2474805 L77.5439809,16.2474805 C78.0825727,16.2474805 78.5192688,15.811525 78.5192688,15.2735559 L78.5192688,7.06160732 L78.5192688,6.69366087 L78.5192688,6.76719203 L78.5192688,6.61925779 C78.5192688,6.09611118 78.0948002,5.67178116 77.5704738,5.67178116 L74.3331,5.67178116 L74.524664,5.20153048 L74.7051651,4.75889032 L72.2780082,4.75889032 L71.3871481,6.90669779 C71.3201881,7.06800133 71.1626863,7.17321193 70.9877168,7.17321193 L70.8584547,7.17321193 L70.8584547,7.61556145 L70.9877168,7.61556145 L70.9888813,7.61556145 C70.988299,7.61556145 70.9880079,7.61556145 70.9877168,7.61556145 L70.8584547,7.61556145 L70.8584547,8.35552326 L72.8695858,8.35552326 C73.1123889,8.35552326 73.3304458,8.20758903 73.420114,7.98234535 L73.420114,7.98234535 Z" id="Fill-1" fill="#FEFEFE"></path>
                <g id="编组" transform="translate(86.438432, 4.774265)">
                    <mask id="mask-2" fill="white">
                        <use xlink:href="#path-1"></use>
                    </mask>
                    <g id="Clip-4"></g>
                    <path d="M4.1879156,2.26871246 L3.14392079,2.26871246 L3.14392079,2.26842183 L3.14392079,2.26842183 L4.1879156,2.26842183 L4.1879156,2.26871246 Z M7.35687363,10.5167 C7.12920939,10.5167 6.91930414,10.3928887 6.80896559,10.1938023 L4.7809489,6.52131312 L7.4532379,6.52131312 L7.4532379,5.5802305 L4.50786827,5.5802305 L4.50786827,3.20979509 L7.2514843,3.20979509 L7.2514843,2.26871246 L6.18711034,2.26871246 L6.95220191,0.442640159 L6.95191078,0.442640159 L6.95220191,0.442640159 L7.13765219,0 L4.94369098,0 L4.1879156,1.8260723 L3.14392079,1.8260723 L2.40211968,0 L0.228246495,0 L0.408165288,0.442640159 L0.408456419,0.442640159 L0.408165288,0.442640159 L1.14967527,2.26871246 L0.108300633,2.26871246 L0.108300633,3.20979509 L2.44899173,3.20979509 L2.44899173,5.5802305 L0,5.5802305 L0,6.52131312 L2.46209261,6.52131312 L2.4487006,6.72098075 C2.35612102,8.09394996 0.838165381,9.44337757 0.108300633,9.8677076 L0.108300633,11.421453 C1.26612756,11.033162 2.74681847,10.1560195 3.68717074,8.75543978 L3.86126691,8.49590094 L5.09711688,10.8154749 C5.27266871,11.1450572 5.6135828,11.3496657 5.98739466,11.3496657 L7.56182966,11.3496657 L7.56182966,10.5167 L7.35687363,10.5167 Z" id="Fill-3" fill="#FEFEFE" mask="url(#mask-2)"></path>
                </g>
                <mask id="mask-4" fill="white">
                    <use xlink:href="#path-3"></use>
                </mask>
                <g id="Clip-6"></g>
                <path d="M81.5681354,8.17271259 L83.3536402,8.17271259 L83.3536402,6.12691871 L81.5681354,6.12691871 L81.5681354,8.17271259 Z M81.5681354,11.1747022 L83.3536402,11.1747022 L83.3536402,9.09810081 L81.5681354,9.09810081 L81.5681354,11.1747022 Z M81.5681354,14.1458843 L83.3536402,14.1458843 L83.3536402,12.1157848 L81.5681354,12.1157848 L81.5681354,14.1458843 Z M85.8003029,14.1458843 L85.2419142,14.1458843 L85.2419142,6.12691871 L85.8003029,6.12691871 L85.8003029,5.23262864 L85.7965182,5.23262864 L85.8003029,5.232338 L85.8003029,4.78998848 L79.1374849,4.78998848 L79.1374849,5.23262864 L79.1374849,6.12691871 L79.6798615,6.12691871 L79.6798615,14.1458843 L79.1374849,14.1458843 L79.1374849,15.0407557 L83.3536402,15.0407557 L83.3536402,16.216673 L85.2419142,16.216673 L85.2419142,15.0407557 L85.8003029,15.0407557 L85.8003029,14.1458843 Z" id="Fill-5" fill="#FEFEFE" mask="url(#mask-4)"></path>
                <path d="M35.8202887,15.1520115 L38.1068295,7.5846958 C38.1307022,7.50535189 38.1426386,7.42339226 38.1472967,7.34056071 C38.1484612,7.34608282 38.1507902,7.35189556 38.1516636,7.35741766 C38.3659358,6.39017771 37.6791584,5.78449019 37.0966058,5.78449019 L33.0702678,5.78449019 L33.0702678,6.22683971 L37.0966058,6.22683971 C37.0977704,6.22683971 33.0702678,6.22713035 33.0702678,6.22713035 L33.0702678,7.32283186 L35.8383388,7.32283186 L33.6298211,14.7300066 C33.5608231,14.9619349 33.3430573,15.1238197 33.1008365,15.1238197 L32.9316896,15.1238197 L32.9316896,15.8887763 L34.8269507,15.8887763 C35.2846082,15.8887763 35.6881154,15.5894202 35.8202887,15.1520115" id="Fill-7" fill="#FEFEFE" mask="url(#mask-4)"></path>
                <path d="M69.2060549,8.43289083 L70.0739156,8.43289083 L70.0739156,7.39880437 L69.2060549,7.39880437 L69.2060549,5.18589421 L69.2057638,5.18589421 L69.2060549,5.18589421 L69.2060549,4.74354469 L67.0933192,4.74354469 L67.0933192,5.18589421 L67.0933192,7.39880437 L66.5800557,7.39880437 C66.3815045,7.39880437 66.2196358,7.23750083 66.2196358,7.03899576 L66.2196358,6.71086658 L66.2196358,5.50181664 L64.2702244,5.50181664 L64.2716801,5.94416616 L64.2722624,5.94416616 L64.2702244,5.94416616 L64.2760471,7.73565266 C64.2775027,8.11987478 64.5919239,8.43289083 64.9770899,8.43289083 L67.0933192,8.43289083 L67.0933192,12.0286519 L64.1482407,12.818022 L64.1482407,14.0398599 L67.0933192,13.2507805 L67.0933192,16.2786368 L69.2060549,16.2786368 L69.2060549,12.6398615 L70.2290883,12.3611406 L70.2290883,11.1395933 L69.2060549,11.4183142 L69.2060549,8.43289083 Z" id="Fill-8" fill="#FEFEFE" mask="url(#mask-4)"></path>
                <path d="M60.674265,15.1551504 C60.7691736,15.5678549 61.1371628,15.8605264 61.5616314,15.8605264 L63.4292351,15.8605264 L63.4292351,15.1051608 L63.1622682,15.1051608 C63.050474,15.1051608 62.9538186,15.0284326 62.9287814,14.920025 L61.1645291,7.28789729 L63.4138052,7.28789729 L63.4138052,6.23840706 L63.4123495,6.23840706 L63.4138052,6.23811642 L63.4138052,5.7957669 L57.151292,5.7957669 L57.151292,4.74337031 L54.7515013,4.74337031 L54.7515013,5.18571983 L54.7517925,5.18601047 L54.7515013,5.18601047 L54.7515013,5.7957669 L48.4892793,5.7957669 L48.4892793,6.23811642 L48.4892793,6.23840706 L48.4892793,7.28789729 L50.7219609,7.28789729 L49.0566931,14.5857925 C48.9844926,14.9025868 48.7067539,15.1240522 48.3809786,15.1240522 L47.5113711,15.1240522 C47.2071395,15.1240522 46.9340589,14.9206063 46.8473019,14.6296787 L44.6684795,7.32277373 L47.4368417,7.32277373 L47.4368417,6.22707222 L47.4368417,6.22678158 L47.4368417,5.78443206 L43.4105036,5.78443206 C42.9807947,5.78443206 42.5834012,6.03408925 42.3909638,6.43807468 C42.3793186,6.46655711 42.3682556,6.51189648 42.3539902,6.56101414 C42.3391425,6.6031565 42.3330288,6.6502397 42.3228392,6.69528843 C42.2913971,6.87054255 42.2791696,7.10392406 42.3554458,7.38177304 C42.3569015,7.37479775 42.3598128,7.36724119 42.3612685,7.35997526 C42.3670911,7.43583152 42.378154,7.51168778 42.40028,7.58463767 L44.6868208,15.1519534 C44.8189941,15.5893621 45.2225013,15.8887182 45.6801588,15.8887182 L50.2375193,15.8887182 C50.7254544,15.8887182 51.1414802,15.5568107 51.2491986,15.0822005 L53.0192735,7.28789729 L54.7515013,7.28789729 L54.7515013,16.3249643 L57.151292,16.3249643 L57.151292,7.28789729 L58.8677988,7.28789729 L60.674265,15.1551504 Z" id="Fill-9" fill="#FEFEFE" mask="url(#mask-4)"></path>
                <path d="M37.693715,16.2321058 L40.495266,16.2321058 C41.0664645,16.2321058 41.5319826,15.7682491 41.5325648,15.1980193 L41.5436278,7.04100115 L41.5456657,7.04245434 L41.5459568,5.21056929 L41.546248,5.13936323 L41.546248,4.6970137 L38.9449949,4.6970137 L38.9449949,5.13936323 L38.945286,5.13936323 L38.9449949,5.13936323 L38.9449949,14.6228487 C38.9449949,14.8719246 38.7423679,15.0744986 38.4928688,15.0744986 L37.693715,15.0744986 L37.693715,16.2321058 Z" id="Fill-10" fill="#FEFEFE" mask="url(#mask-4)"></path>
                <polygon id="Fill-11" fill="#FEFEFE" mask="url(#mask-4)" points="38.7095575 21.3355754 37.5415409 17.7947447 36.6134162 17.7947447 35.4442351 21.3355754 34.3466723 17.8089859 33.185934 17.8089859 34.9455282 22.958783 35.8885006 22.958783 37.0637954 19.5513548 38.2382168 22.958783 39.1823538 22.958783 40.9343785 17.8089859 39.8010066 17.8089859"></polygon>
                <path d="M43.5451807,21.5395153 C43.5451807,21.9612296 43.1803939,22.2559356 42.6444222,22.2559356 C42.2717749,22.2559356 42.0045169,22.0737062 42.0045169,21.7574931 L42.0045169,21.7432519 C42.0045169,21.3848965 42.3078751,21.1811599 42.8001772,21.1811599 C43.0886877,21.1811599 43.3483763,21.2442282 43.5451807,21.3288035 L43.5451807,21.5395153 Z M42.8214297,18.9749344 C42.1666767,18.9749344 41.73755,19.1016521 41.3081321,19.2911475 L41.5753902,20.1063843 C41.9340632,19.9729819 42.2435352,19.8884065 42.6665481,19.8884065 C43.2359999,19.8884065 43.5317887,20.1485266 43.5317887,20.6260432 L43.5317887,20.6963774 C43.2508475,20.6051174 42.9611725,20.5420491 42.5541717,20.5420491 C41.6248824,20.5420491 40.9701294,20.935281 40.9701294,21.7853943 L40.9701294,21.7996355 C40.9701294,22.5721486 41.5890733,23.0008382 42.3288365,23.0008382 C42.8770357,23.0008382 43.2569613,22.7901264 43.5242193,22.4881545 L43.5242193,22.9235288 L44.5597713,22.9235288 L44.5597713,20.6475504 C44.5597713,20.1276008 44.4249778,19.6989112 44.1367584,19.4111806 C43.8558172,19.1368192 43.4191211,18.9749344 42.8214297,18.9749344 L42.8214297,18.9749344 Z" id="Fill-12" fill="#FEFEFE" mask="url(#mask-4)"></path>
                <path d="M46.808174,18.0053112 L45.7379774,18.0053112 L45.7379774,19.0170187 L45.2663456,19.0170187 L45.2663456,19.9304908 L45.7379774,19.9304908 L45.7379774,21.8205032 C45.7379774,22.7197341 46.2032043,22.9865389 46.8786276,22.9865389 C47.2437055,22.9865389 47.5048498,22.9025448 47.7362987,22.7691424 L47.7362987,21.9117632 C47.5753034,21.9963386 47.3921822,22.0451656 47.1880996,22.0451656 C46.9269553,22.0451656 46.808174,21.9187385 46.808174,21.6449585 L46.808174,19.9304908 L47.7511464,19.9304908 L47.7511464,19.0170187 L46.808174,19.0170187 L46.808174,18.0053112 Z" id="Fill-13" fill="#FEFEFE" mask="url(#mask-4)"></path>
                <path d="M49.3881163,20.6753934 C49.4722531,20.1484685 49.7890033,19.803773 50.2679134,19.803773 C50.7605066,19.803773 51.0560043,20.1627097 51.126749,20.6753934 L49.3881163,20.6753934 Z M50.2679134,18.9472658 C49.1345414,18.9472658 48.3400457,19.8607379 48.3400457,20.9773653 L48.3400457,20.9916065 C48.3400457,22.1861246 49.2049951,23.008046 50.3730116,23.008046 C51.0845351,23.008046 51.605368,22.7339753 51.9704459,22.2843599 L51.3593625,21.7431938 C51.048726,22.031215 50.7753542,22.1509575 50.3881504,22.1509575 C49.8743046,22.1509575 49.5080622,21.8765961 49.402964,21.3429866 L52.1535671,21.3429866 C52.1608454,21.24417 52.1687059,21.1459347 52.1687059,21.0619406 C52.1687059,19.9514166 51.5634451,18.9472658 50.2679134,18.9472658 L50.2679134,18.9472658 Z" id="Fill-14" fill="#FEFEFE" mask="url(#mask-4)"></path>
                <path d="M54.1272588,19.8254836 L54.1272588,19.0169315 L53.0570622,19.0169315 L53.0570622,22.9236741 L54.1272588,22.9236741 L54.1272588,21.4690359 C54.1272588,20.520978 54.5985995,20.063806 55.3450587,20.063806 L55.4006646,20.063806 L55.4006646,18.9471786 C54.7397979,18.9186962 54.3587078,19.2770516 54.1272588,19.8254836" id="Fill-15" fill="#FEFEFE" mask="url(#mask-4)"></path>
                <polygon id="Fill-16" fill="#FEFEFE" mask="url(#mask-4)" points="63.6575107 21.3355754 62.4894942 17.7947447 61.5616606 17.7947447 60.3921884 21.3355754 59.2946255 17.8089859 58.1338873 17.8089859 59.8934815 22.958783 60.8364539 22.958783 62.0120398 19.5513548 63.1861701 22.958783 64.130307 22.958783 65.8826229 17.8089859 64.7489598 17.8089859"></polygon>
                <path d="M69.16256,20.9915774 C69.16256,21.5888364 68.7689512,22.0945448 68.1220587,22.0945448 C67.4885583,22.0945448 67.0591404,21.5745952 67.0591404,20.9773362 L67.0591404,20.963095 C67.0591404,20.3658359 67.4527492,19.8673935 68.1010973,19.8673935 C68.7331421,19.8673935 69.16256,20.3800771 69.16256,20.9773362 L69.16256,20.9915774 Z M68.1220587,18.9472367 C66.90455,18.9472367 66.0035004,19.8607088 66.0035004,20.9773362 L66.0035004,20.9915774 C66.0035004,22.1157613 66.8972717,23.0080169 68.1010973,23.0080169 C69.3171504,23.0080169 70.2182,22.1015201 70.2182,20.9773362 L70.2182,20.963095 C70.2182,19.8464676 69.3250109,18.9472367 68.1220587,18.9472367 L68.1220587,18.9472367 Z" id="Fill-17" fill="#FEFEFE" mask="url(#mask-4)"></path>
                <path d="M74.0640079,20.9915774 C74.0640079,21.5888364 73.6703991,22.0945448 73.0235066,22.0945448 C72.389715,22.0945448 71.9602972,21.5745952 71.9602972,20.9773362 L71.9602972,20.963095 C71.9602972,20.3658359 72.353906,19.8673935 73.0025452,19.8673935 C73.63459,19.8673935 74.0640079,20.3800771 74.0640079,20.9773362 L74.0640079,20.9915774 Z M73.0235066,18.9472367 C71.8057068,18.9472367 70.9046572,19.8607088 70.9046572,20.9773362 L70.9046572,20.9915774 C70.9046572,22.1157613 71.7984285,23.0080169 73.0025452,23.0080169 C74.2197628,23.0080169 75.1208124,22.1015201 75.1208124,20.9773362 L75.1208124,20.963095 C75.1208124,19.8464676 74.2261677,18.9472367 73.0235066,18.9472367 L73.0235066,18.9472367 Z" id="Fill-18" fill="#FEFEFE" mask="url(#mask-4)"></path>
                <path d="M78.8588728,20.9773943 C78.8588728,21.6449875 78.4082025,22.087337 77.8736864,22.087337 C77.3391704,22.087337 76.8887912,21.6449875 76.8887912,20.9773943 L76.8887912,20.9631531 C76.8887912,20.2819 77.3391704,19.8532104 77.8736864,19.8532104 C78.4082025,19.8532104 78.8588728,20.2961412 78.8588728,20.9631531 L78.8588728,20.9773943 Z M78.8451897,19.5445539 C78.5779317,19.2207843 78.2041198,18.9472948 77.6064284,18.9472948 C76.6774302,18.9472948 75.8185946,19.6637151 75.8185946,20.9631531 L75.8185946,20.9773943 C75.8185946,22.2843889 76.6911134,23.0008091 77.6064284,23.0008091 C78.1904367,23.0008091 78.5706534,22.7197632 78.8451897,22.3471665 L78.8451897,22.9234997 L79.9142217,22.9234997 L79.9142217,17.5908919 L78.8451897,17.5908919 L78.8451897,19.5445539 Z" id="Fill-19" fill="#FEFEFE" mask="url(#mask-4)"></path>
                <polygon id="Fill-20" fill="#FEFEFE" mask="url(#mask-4)" points="83.4002211 22.9237031 84.4841009 22.9237031 84.4841009 17.8090731 83.4002211 17.8090731"></polygon>
                <path d="M88.6896299,20.9915774 C88.6896299,21.5888364 88.2960211,22.0945448 87.6491286,22.0945448 C87.0156281,22.0945448 86.5862103,21.5745952 86.5862103,20.9773362 L86.5862103,20.963095 C86.5862103,20.3658359 86.9798191,19.8673935 87.6281672,19.8673935 C88.260212,19.8673935 88.6896299,20.3800771 88.6896299,20.9773362 L88.6896299,20.9915774 Z M87.6491286,18.9472367 C86.4316199,18.9472367 85.5305703,19.8607088 85.5305703,20.9773362 L85.5305703,20.9915774 C85.5305703,22.1157613 86.4240505,23.0080169 87.6281672,23.0080169 C88.8456759,23.0080169 89.7464344,22.1015201 89.7464344,20.9773362 L89.7464344,20.963095 C89.7464344,19.8464676 88.8520808,18.9472367 87.6491286,18.9472367 L87.6491286,18.9472367 Z" id="Fill-21" fill="#FEFEFE" mask="url(#mask-4)"></path>
                <polygon id="Fill-22" fill="#FEFEFE" mask="url(#mask-4)" points="89.7708603 18.806394 91.3470421 18.806394 91.3470421 22.9235578 92.4300484 22.9235578 92.4300484 18.806394 94.0001165 18.806394 94.0001165 17.8089278 89.7708603 17.8089278"></polygon>
                <path d="M17.2375014,9.59953684 C17.4852536,5.1484311 20.9697974,3.41158436 23.7262231,3.88357885 C21.6239681,1.81337147 18.8660867,0.408141546 15.7917461,8.71911016e-05 L15.7917461,24.1424313 C15.7917461,25.9144451 14.4947587,27.3801275 12.7974665,27.6550701 C13.1741897,27.685587 13.5544064,27.7053503 13.9392813,27.7053503 C18.0634392,27.7053503 21.7680778,25.9158983 24.320421,23.0734684 C19.0285376,18.4008973 17.1172644,14.4723569 17.2375014,9.59953684 M11.6096532,27.5080078 L11.6096532,13.2406372 C8.75744536,16.9096388 6.8377293,23.1885607 6.2266459,25.3805449 C7.82058666,26.4396262 9.6453941,27.1778442 11.6096532,27.5080078 M2.48386919,21.7153217 C0.919332629,19.4657913 -5.82261466e-05,16.7355472 -5.82261466e-05,13.7896505 C-5.82261466e-05,6.89719396 5.0207824,1.17832961 11.6096532,0.0712932574 L11.6096532,6.78326426 C9.49837307,7.54560512 4.43590076,9.49141987 1.52896038,11.6020258 C1.52896038,11.6020258 0.917585845,14.0119878 1.93683454,17.6097833 C1.93683454,17.6097833 6.82899538,12.8447896 11.6096532,10.2601547 L11.6096532,11.2858127 C9.75398586,12.6858112 4.26529815,17.1098877 2.48386919,21.7153217" id="Fill-23" fill="#FEFEFE" mask="url(#mask-4)"></path>
                <path d="M25.4505905,21.4177384 C28.4122634,17.7205451 27.7234481,11.7993974 27.5938949,10.8818564 C27.3886478,9.83701633 27.0937323,9.03456756 26.819196,8.48468235 C26.8157025,8.47625387 26.8133734,8.46724413 26.8098799,8.45910629 C26.7784377,8.39196914 26.7336036,8.3044874 26.6803267,8.20683337 C26.6608209,8.17166629 26.6450999,8.14638087 26.6261764,8.11382953 C26.5842535,8.040589 26.5388371,7.96560466 26.4855602,7.88306375 C26.3155399,7.61771216 26.1947206,7.47471875 26.1947206,7.47471875 L26.1944295,7.48024086 C26.1350388,7.40496587 26.0782683,7.32998153 26.0104349,7.25383463 C25.3454923,6.48509975 24.3512808,6.00147978 23.2543002,6.00147978 C21.251903,6.00147978 19.6285581,7.62207172 19.6285581,9.62107304 C19.6285581,9.63938317 19.6308871,9.65682139 19.6311782,9.67513152 C19.6102168,10.6586471 19.9019298,11.725285 20.6035549,12.7221699 C23.3133998,16.0252594 26.1571648,16.8332303 25.4505905,21.4177384" id="Fill-24" fill="#FEFEFE" mask="url(#mask-4)"></path>
            </g>
        </g>
    </g>
</svg>